<svg aria-hidden="true" style="position:absolute;width:0;height:0" xmlns="http://www.w3.org/2000/svg" overflow="hidden">
    <defs>
        <symbol id="icon-star-active" viewBox="0 0 34 32">
            <path fill="var(--color1, #4754eb)" stroke-width="1.882"
                d="M18.629 3.176c-.691-1.399-2.685-1.399-3.376 0L11.89 9.99l-7.519 1.093c-1.544.224-2.16 2.122-1.043 3.211v0l5.441 5.304-1.284 7.489c-.264 1.538 1.35 2.71 2.731 1.984l6.725-3.536 6.725 3.536c1.381.726 2.995-.447 2.731-1.984l-1.284-7.489 5.441-5.304c1.117-1.089.501-2.986-1.043-3.211L21.992 9.99l-3.363-6.814z" />
        </symbol>
        <symbol id="icon-star-not-active" viewBox="0 0 31 32">
            <path fill="var(--color2, #d9d9d9)" stroke-width="1.28"
                d="M16.508 2.16c-.47-.951-1.826-.951-2.296 0l-3.791 7.682-8.478 1.232c-1.05.153-1.469 1.443-.709 2.183l6.135 5.98-1.448 8.444c-.179 1.046.918 1.843 1.857 1.349l7.583-3.986 7.583 3.986c.939.494 2.037-.304 1.857-1.349l-1.448-8.444 6.135-5.98c.76-.741.34-2.031-.709-2.183l-8.478-1.232L16.51 2.16z" />
        </symbol>
    </defs>
</svg>