<svg aria-hidden="true" style="position:absolute;width:0;height:0" xmlns="http://www.w3.org/2000/svg" overflow="hidden"><defs><symbol id="icon-included" viewBox="0 0 32 32"><path fill="var(--color1, #fff)" opacity=".5" d="M0 16C0 7.163 7.163 0 16 0s16 7.163 16 16-7.163 16-16 16S0 24.837 0 16z"/><path fill="none" stroke="var(--color2, #4754eb)" stroke-linecap="round" stroke-width="2" d="M10 16l4 4 8-8"/><path fill="var(--color1, #fff)" d="M16 31C7.716 31 1 24.284 1 16h-2c0 9.389 7.611 17 17 17v-2zm15-15c0 8.284-6.716 15-15 15v2c9.389 0 17-7.611 17-17h-2zM16 1c8.284 0 15 6.716 15 15h2c0-9.389-7.611-17-17-17v2zm0-2C6.611-1-1 6.611-1 16h2C1 7.716 7.716 1 16 1v-2z"/></symbol><symbol id="icon-not-included" viewBox="0 0 32 32"><path fill="var(--color1, #fff)" opacity=".5" d="M0 16C0 7.163 7.163 0 16 0s16 7.163 16 16-7.163 16-16 16S0 24.837 0 16z"/><path fill="none" stroke="var(--color3, #eb4763)" stroke-linecap="round" stroke-width="2" d="M11 21l10-10M21 21L11 11"/><path fill="var(--color1, #fff)" d="M16 31C7.716 31 1 24.284 1 16h-2c0 9.389 7.611 17 17 17v-2zm15-15c0 8.284-6.716 15-15 15v2c9.389 0 17-7.611 17-17h-2zM16 1c8.284 0 15 6.716 15 15h2c0-9.389-7.611-17-17-17v2zm0-2C6.611-1-1 6.611-1 16h2C1 7.716 7.716 1 16 1v-2z"/></symbol></defs></svg>