<svg width="359" height="7459" viewBox="0 0 359 7459" fill="none" xmlns="http://www.w3.org/2000/svg">
<g clip-path="url(#clip0)">
<path fill-rule="evenodd" clip-rule="evenodd" d="M-6.15382 244.55C44.1072 236.58 98.2828 195.756 140.954 221.302C183.153 246.566 161.16 308.236 174.494 352.7C186.907 394.095 226.787 430.553 216.245 472.379C205.505 514.987 158.372 538.953 120.742 565.956C81.5011 594.115 42.8602 640.492 -6.15382 631.971C-56.3666 623.242 -68.9846 562.671 -102.232 527.192C-125.51 502.352 -155.607 484.73 -171.567 455.458C-189.827 421.969 -209.082 385.313 -199.415 348.954C-189.482 311.597 -156.538 282.295 -120.324 262.732C-86.2356 244.316 -45.1703 250.737 -6.15382 244.55Z" fill="#4754EB"/>
<path fill-rule="evenodd" clip-rule="evenodd" d="M-38.3564 371.013C-15.6082 359.196 7.51502 343.647 32.8928 347.492C57.8904 351.279 73.404 374.799 92.9452 390.906C113.681 407.998 143.397 418.557 150.544 444.468C157.759 470.626 142.845 497.596 128.747 520.708C116.057 541.513 95.3173 553.999 75.2857 567.847C53.1786 583.129 32.789 609.531 6.19402 605.428C-20.4516 601.317 -31.0229 568.989 -48.8503 548.695C-64.0855 531.353 -81.7604 516.839 -90.427 495.442C-100.532 470.494 -112.339 442.329 -101.969 417.55C-91.5604 392.676 -62.2551 383.428 -38.3564 371.013Z" fill="#8633B0"/>
<path fill-rule="evenodd" clip-rule="evenodd" d="M246.45 142.868C254.42 185.949 295.244 232.385 269.698 268.96C244.434 305.131 182.764 286.28 138.3 297.709C96.9047 308.349 60.4475 342.532 18.621 333.496C-23.987 324.29 -47.9532 283.89 -74.9562 251.636C-103.115 218.001 -149.492 184.88 -140.971 142.868C-132.242 99.8287 -71.671 89.0132 -36.1924 60.5152C-11.3525 40.5626 6.27023 14.7652 35.5419 1.08511C69.0311 -14.566 105.687 -31.0703 142.046 -22.7842C179.403 -14.2704 208.705 13.9678 228.268 45.0076C246.684 74.2266 240.263 109.425 246.45 142.868Z" fill="white"/>
<circle cx="219" cy="555" r="140" fill="white"/>
<circle cx="100" cy="615" r="100" fill="#4754EB"/>
<circle cx="219" cy="1642" r="140" fill="white"/>
<circle cx="100" cy="1698" r="100" fill="#EB478B"/>
<path fill-rule="evenodd" clip-rule="evenodd" d="M292.601 2026.49C244.458 2037.6 188.641 2081.52 150.102 2051.92C110.839 2021.77 148.416 1959.37 143.064 1911.66C139.242 1877.59 119.608 1847.25 123.318 1813.18C127.769 1772.29 135.141 1728.65 166.112 1699.96C199.039 1669.46 246.682 1658.49 292.601 1656.37C340.287 1654.17 393.28 1657.05 428.338 1687.86C462.398 1717.79 455.629 1768.76 468.659 1811.08C481.157 1851.67 519.281 1891.09 503.036 1930.47C486.768 1969.9 432.529 1977.67 392.364 1996C360.084 2010.73 327.397 2018.46 292.601 2026.49Z" fill="#4754EB"/>
<path fill-rule="evenodd" clip-rule="evenodd" d="M172.644 1903.07C153.672 1884.19 162.726 1853.24 161.188 1826.99C159.82 1803.65 154.45 1780.18 164.175 1758.54C174.353 1735.89 193.331 1717.86 215.779 1705.51C239.087 1692.69 266.056 1683.02 292.159 1688.13C317.692 1693.13 332.21 1716.61 352.284 1732.25C375.31 1750.18 412.857 1758.34 418.251 1786.32C423.631 1814.23 390.348 1834.75 376.994 1860.42C363.296 1886.75 366.969 1925.77 339.113 1938.47C311.147 1951.22 282.024 1923.76 252.054 1917.39C225.115 1911.66 191.629 1921.96 172.644 1903.07Z" fill="#8633B0"/>
<path fill-rule="evenodd" clip-rule="evenodd" d="M30.1879 1296.77C65.8589 1300.74 104.798 1293.06 134.533 1308.66C164.593 1324.43 178.843 1352.36 187.731 1379.42C196.148 1405.04 194.379 1431.67 183.153 1456.65C172.078 1481.3 147.137 1498.77 125.154 1518.67C94.7469 1546.2 76.6089 1589.08 30.1879 1595.12C-15.9896 1601.14 -62.8932 1575.26 -91.5692 1546.9C-117.304 1521.46 -105.768 1485.86 -112.448 1454.09C-117.79 1428.68 -128.79 1405.26 -126.751 1379.57C-124.064 1345.72 -135.314 1301.89 -98.8399 1282.65C-62.1685 1263.3 -13.8839 1291.86 30.1879 1296.77Z" fill="white"/>
<path fill-rule="evenodd" clip-rule="evenodd" d="M504.492 5195.09C497.28 5229 472.452 5254.12 450.48 5280.89C430.018 5305.81 411.34 5333.35 381.357 5345.09C350.325 5357.24 316.738 5351.59 283.877 5346.12C245.072 5339.65 194.958 5344.21 174.333 5310.6C153.489 5276.63 190.732 5234.98 191.2 5195.09C191.658 5155.99 152.514 5111.94 177.018 5081.54C201.891 5050.67 253.896 5079.69 292.198 5069.76C326.64 5060.83 351.657 5025.62 387.202 5027.04C427.449 5028.65 470.566 5044.7 493.671 5077.8C516.681 5110.77 512.863 5155.73 504.492 5195.09Z" fill="#8633B0"/>
<path fill-rule="evenodd" clip-rule="evenodd" d="M402.635 5183.85C410 5202.4 425.537 5218.29 424.017 5238.19C422.481 5258.3 408.997 5275.22 394.583 5289.25C380.933 5302.54 363.84 5311.31 345.167 5314.95C326.747 5318.54 308.972 5312.89 290.499 5309.54C264.948 5304.89 233.212 5311.68 216.632 5291.6C200.139 5271.63 203.331 5239.79 213.095 5215.8C221.858 5194.27 247.233 5186.94 265.198 5172.26C279.564 5160.53 291.13 5146.79 307.708 5138.49C329.552 5127.56 353.77 5106.33 375.832 5116.88C398.014 5127.47 393.535 5160.94 402.635 5183.85Z" fill="#EB478B"/>
<path fill-rule="evenodd" clip-rule="evenodd" d="M336.09 4066.01C370.002 4073.22 395.124 4098.05 421.889 4120.02C446.815 4140.48 474.349 4159.16 486.087 4189.14C498.236 4220.17 492.59 4253.76 487.115 4286.62C480.651 4325.43 485.207 4375.54 451.598 4396.17C417.631 4417.01 375.977 4379.77 336.09 4379.3C296.989 4378.84 252.945 4417.99 222.538 4393.48C191.672 4368.61 220.691 4316.6 210.76 4278.3C201.83 4243.86 166.622 4218.84 168.042 4183.3C169.649 4143.05 185.701 4099.93 218.804 4076.83C251.771 4053.82 296.729 4057.64 336.09 4066.01Z" fill="#4754EB"/>
<path fill-rule="evenodd" clip-rule="evenodd" d="M324.853 4167.87C343.395 4160.5 359.293 4144.96 379.187 4146.48C399.298 4148.02 416.221 4161.5 430.255 4175.92C443.544 4189.57 452.315 4206.66 455.953 4225.33C459.543 4243.75 453.892 4261.53 450.536 4280C445.895 4305.55 452.682 4337.29 432.603 4353.87C412.63 4370.36 380.79 4367.17 356.798 4357.4C335.266 4348.64 327.943 4323.27 313.264 4305.3C301.526 4290.94 287.792 4279.37 279.493 4262.79C268.556 4240.95 247.333 4216.73 257.876 4194.67C268.475 4172.49 301.944 4176.96 324.853 4167.87Z" fill="#8633B0"/>
<path fill-rule="evenodd" clip-rule="evenodd" d="M29.1879 5210.77C64.8589 5214.74 103.798 5207.06 133.533 5222.66C163.593 5238.43 177.843 5266.36 186.731 5293.42C195.148 5319.04 193.379 5345.67 182.153 5370.65C171.078 5395.3 146.137 5412.77 124.154 5432.67C93.7469 5460.2 75.6089 5503.08 29.1879 5509.12C-16.9896 5515.14 -63.8932 5489.26 -92.5692 5460.9C-118.304 5435.46 -106.768 5399.86 -113.448 5368.09C-118.79 5342.68 -129.79 5319.26 -127.751 5293.57C-125.064 5259.72 -136.314 5215.89 -99.8399 5196.65C-63.1685 5177.3 -14.8839 5205.86 29.1879 5210.77Z" fill="white"/>
<path fill-rule="evenodd" clip-rule="evenodd" d="M340.604 5863.57C379.774 5867.94 422.532 5859.5 455.183 5876.62C488.191 5893.93 503.839 5924.59 513.599 5954.29C522.841 5982.41 520.898 6011.64 508.571 6039.06C496.41 6066.11 469.023 6085.29 444.884 6107.13C411.495 6137.34 391.578 6184.4 340.604 6191.04C289.898 6197.64 238.394 6169.23 206.906 6138.11C178.647 6110.18 191.314 6071.11 183.979 6036.24C178.113 6008.35 166.034 5982.65 168.273 5954.45C171.224 5917.3 158.87 5869.2 198.922 5848.08C239.19 5826.84 292.21 5858.18 340.604 5863.57Z" fill="#8633B0"/>
<path fill-rule="evenodd" clip-rule="evenodd" d="M237.905 6080C230.742 6061.29 233.206 6040.55 233.317 6019.52C233.463 5991.87 220.543 5964.02 238.655 5937.78C257.712 5910.16 294.107 5884.35 327.252 5883.41C360.624 5882.46 368.751 5919.57 394.834 5933.35C414.094 5943.52 442.823 5938.81 458.479 5952.71C477.032 5969.19 493.549 5990.87 489.092 6017.05C484.569 6043.61 456.547 6065.07 435.492 6087.69C412.8 6112.07 394.219 6144.41 361.918 6153.67C329.603 6162.93 300.864 6147.45 276.815 6133.17C256.515 6121.11 245.973 6101.08 237.905 6080Z" fill="#EB478B"/>
<path fill-rule="evenodd" clip-rule="evenodd" d="M37.936 5889.03C66.1176 5889.73 93.285 5901.81 112.27 5919.62C129.373 5935.66 130.268 5958.76 135.014 5980.07C139.105 5998.45 142.256 6016.43 137.907 6034.76C133.068 6055.16 125.232 6074.98 108.844 6090.38C89.5584 6108.51 66.368 6131.87 37.936 6128.71C9.08244 6125.5 1.5118 6092.01 -20.7172 6075.98C-40.3947 6061.78 -70.5103 6059.63 -83.8749 6040.82C-98.7769 6019.85 -104.48 5993.28 -96.1628 5969.8C-87.7734 5946.11 -63.2816 5930.11 -39.6066 5915.85C-16.2447 5901.77 9.36281 5888.32 37.936 5889.03Z" fill="white"/>
<path fill-rule="evenodd" clip-rule="evenodd" d="M-85.3346 7015.93C-158.137 7014.12 -228.32 6982.9 -277.364 6936.9C-321.548 6895.47 -323.859 6835.8 -336.118 6780.73C-346.689 6733.26 -354.829 6686.81 -343.593 6639.45C-331.092 6586.75 -310.85 6535.55 -268.514 6495.76C-218.693 6448.94 -158.784 6388.58 -85.3345 6396.75C-10.7962 6405.04 8.76125 6491.55 66.1861 6532.98C117.02 6569.66 194.818 6575.2 229.343 6623.79C267.84 6677.97 282.574 6746.62 261.087 6807.28C239.415 6868.46 176.144 6909.81 114.984 6946.65C54.6321 6983 -11.5206 7017.76 -85.3346 7015.93Z" fill="#4754EB"/>
<path fill-rule="evenodd" clip-rule="evenodd" d="M-54.2704 6947.85C-94.4687 6947.05 -127.963 6923.68 -158.682 6901.55C-187.37 6880.89 -209.524 6855.6 -223.557 6825.9C-238.498 6794.27 -251.926 6760.03 -241.033 6727.22C-229.946 6693.83 -198.826 6668.27 -164.87 6649.14C-132.058 6630.66 -93.3585 6625.68 -54.2704 6622.04C-10.1868 6617.93 40.0872 6603.88 75.3926 6626.76C110.666 6649.63 108.06 6694.7 115.326 6731.98C121.48 6763.56 125.017 6795.02 114.157 6825.66C103.115 6856.82 82.8026 6884.68 53.7333 6905.77C22.8289 6928.19 -13.7098 6948.65 -54.2704 6947.85Z" fill="#8633B0"/>
</g>
<defs>
<clipPath id="clip0">
<rect width="359" height="7459" rx="24" fill="white"/>
</clipPath>
</defs>
</svg>
